<svg width="58" height="58" viewBox="0 0 58 58" fill="none" xmlns="http://www.w3.org/2000/svg">
<g clip-path="url(#clip0)">
<path d="M13.2244 -0.0566406C11.9484 0.00135938 10.2664 0.117359 9.51241 0.291359C8.35241 0.523359 7.25041 0.871359 6.38041 1.33536C5.27841 1.85736 4.35041 2.55336 3.53841 3.36536C2.66841 4.23536 1.97241 5.16336 1.45041 6.26536C0.986411 7.13536 0.638411 8.23736 0.406411 9.39736C0.232411 10.1514 0.116411 11.8334 0.116411 13.1094C0.0584106 13.6314 0.0584106 14.3274 0.0584106 14.6754V43.2115V44.7775C0.116411 46.0535 0.232411 47.7355 0.406411 48.4895C0.638411 49.6495 0.986411 50.7515 1.45041 51.6215C1.97241 52.7235 2.66841 53.6515 3.48041 54.4635C4.35041 55.3335 5.27841 56.0295 6.38041 56.5515C7.25041 57.0155 8.35241 57.3635 9.51241 57.5955C10.2664 57.7695 11.9484 57.8855 13.2244 57.8855C13.7464 57.9435 14.4424 57.9435 14.7904 57.9435H43.3264H44.8924C46.1684 57.8855 47.8504 57.7695 48.6044 57.5955C49.7644 57.3635 50.8664 57.0155 51.7364 56.5515C52.8384 56.0295 53.7664 55.3335 54.5784 54.5215C55.4484 53.6515 56.1444 52.7235 56.6664 51.6215C57.1304 50.7515 57.4784 49.6495 57.7104 48.4895C57.8844 47.7355 58.0004 46.0535 58.0004 44.7775C58.0584 44.2555 58.0584 43.5595 58.0584 43.2115V13.1094C58.0004 11.8334 57.8844 10.1514 57.7104 9.39736C57.4784 8.23736 57.1304 7.13536 56.6664 6.26536C56.1444 5.16336 55.4484 4.23536 54.6364 3.42336C53.7664 2.55336 52.8384 1.85736 51.7364 1.33536C50.8664 0.871359 49.7644 0.523359 48.6044 0.291359C47.8504 0.117359 46.1684 0.00135937 44.8924 0.00135937C44.3704 -0.0566406 43.6744 -0.0566406 43.3264 -0.0566406H13.2244Z" fill="url(#paint0_linear)"/>
<path fill-rule="evenodd" clip-rule="evenodd" d="M39.0551 32.8182C38.5386 32.5597 35.9988 31.3103 35.5252 31.138C35.0517 30.9657 34.7074 30.8795 34.363 31.3965C34.0185 31.9135 33.0286 33.0767 32.7273 33.4214C32.4259 33.766 32.1246 33.8092 31.608 33.5506C31.0914 33.2922 29.4269 32.7468 27.4538 30.9874C25.9181 29.6181 24.8813 27.9268 24.58 27.4098C24.2786 26.8928 24.5479 26.6133 24.8065 26.3558C25.0389 26.1246 25.3231 25.7527 25.5814 25.4512C25.8396 25.1496 25.9257 24.9342 26.0979 24.5896C26.2701 24.245 26.184 23.9433 26.0549 23.6848C25.9257 23.4263 24.8926 20.8845 24.4621 19.8504C24.0429 18.8435 23.6169 18.9798 23.2999 18.9639C22.9989 18.949 22.6542 18.9458 22.3098 18.9458C21.9653 18.9458 21.4058 19.075 20.9322 19.5919C20.4587 20.109 19.1242 21.3584 19.1242 23.9002C19.1242 26.4421 20.9752 28.8978 21.2335 29.2425C21.4919 29.5872 24.8763 34.8033 30.0583 37.0403C31.2908 37.5724 32.2531 37.89 33.0033 38.1281C34.2408 38.5211 35.367 38.4657 36.2571 38.3327C37.2496 38.1844 39.3134 37.0834 39.744 35.8771C40.1744 34.6708 40.1744 33.6368 40.0452 33.4214C39.9162 33.206 39.5718 33.0767 39.0551 32.8182ZM29.6294 45.6839H29.6224C26.5389 45.6826 23.5147 44.8547 20.8763 43.2895L20.2489 42.9171L13.7451 44.6227L15.4811 38.2836L15.0724 37.6338C13.3523 34.8986 12.4439 31.7374 12.4451 28.4915C12.4489 19.02 20.1577 11.3141 29.6363 11.3141C34.2261 11.3159 38.5405 13.1052 41.7849 16.3522C45.0293 19.5992 46.815 23.9153 46.8133 28.5054C46.8094 37.9776 39.1008 45.6839 29.6294 45.6839ZM44.2542 13.8848C40.3509 9.97821 35.1599 7.82575 29.6292 7.82349C18.2337 7.82349 8.95903 17.0945 8.9545 28.4902C8.95303 32.1329 9.90493 35.6887 11.7141 38.8228L8.78107 49.533L19.741 46.659C22.7608 48.3056 26.1607 49.1732 29.621 49.1747H29.6295C41.024 49.1747 50.2993 39.9024 50.304 28.5067C50.3061 22.9841 48.1577 17.7914 44.2542 13.8848Z" fill="white"/>
</g>
<defs>
<linearGradient id="paint0_linear" x1="29.0584" y1="57.9435" x2="29.0584" y2="-0.05653" gradientUnits="userSpaceOnUse">
<stop stop-color="#25CF43"/>
<stop offset="1" stop-color="#61FD7D"/>
</linearGradient>
<clipPath id="clip0">
<rect width="58" height="58" fill="white"/>
</clipPath>
</defs>
</svg>
