<svg width="56" height="56" viewBox="0 0 56 56" fill="none" xmlns="http://www.w3.org/2000/svg">
<path d="M28 56C43.464 56 56 43.464 56 28C56 12.536 43.464 0 28 0C12.536 0 0 12.536 0 28C0 43.464 12.536 56 28 56Z" fill="#267CB5"/>
<path d="M28 31.675L44.7125 17.3688C44.45 17.1938 44.1 17.0625 43.75 17.0625H12.25C11.9 17.0625 11.55 17.1938 11.2875 17.3688L28 31.675Z" fill="white"/>
<path d="M29.1375 32.9875C28.4812 33.5563 27.5188 33.5563 26.8625 32.9875L10.5 19.0313V37.1875C10.5 38.15 11.2875 38.9375 12.25 38.9375H43.75C44.7125 38.9375 45.5 38.15 45.5 37.1875V18.9875L29.1375 32.9875Z" fill="white"/>
</svg>
