<svg width="111" height="111" viewBox="0 0 111 111" fill="none" xmlns="http://www.w3.org/2000/svg">
<path d="M55.5 111C86.1518 111 111 86.1518 111 55.5C111 24.8482 86.1518 0 55.5 0C24.8482 0 0 24.8482 0 55.5C0 86.1518 24.8482 111 55.5 111Z" fill="url(#paint0_linear)"/>
<path d="M71.3981 90.1875H39.6019C29.2416 90.1875 20.8125 81.7593 20.8125 71.3981V39.6019C20.8125 29.2407 29.2416 20.8125 39.6019 20.8125H71.3981C81.7593 20.8125 90.1875 29.2407 90.1875 39.6019V71.399C90.1875 81.7593 81.7593 90.1875 71.3981 90.1875ZM39.6019 26.594C32.4293 26.594 26.594 32.4293 26.594 39.6019V71.399C26.594 78.5715 32.4293 84.4068 39.6019 84.4068H71.3981C78.5707 84.4068 84.406 78.5715 84.406 71.399V39.6019C84.406 32.4293 78.5707 26.594 71.3981 26.594H39.6019Z" fill="white"/>
<path d="M55.5 72.8438C45.9367 72.8438 38.1562 65.0625 38.1562 55.5C38.1562 45.9358 45.9367 38.1562 55.5 38.1562C65.0633 38.1562 72.8438 45.9358 72.8438 55.5C72.8438 65.0625 65.0633 72.8438 55.5 72.8438ZM55.5 43.9378C49.1244 43.9378 43.9378 49.1244 43.9378 55.5C43.9378 61.8764 49.1244 67.0622 55.5 67.0622C61.8756 67.0622 67.0622 61.8764 67.0622 55.5C67.0622 49.1244 61.8764 43.9378 55.5 43.9378Z" fill="white"/>
<path d="M73.9277 41.0465C76.1227 41.0465 77.9021 39.2672 77.9021 37.0722C77.9021 34.8773 76.1227 33.0979 73.9277 33.0979C71.7328 33.0979 69.9534 34.8773 69.9534 37.0722C69.9534 39.2672 71.7328 41.0465 73.9277 41.0465Z" fill="white"/>
<defs>
<linearGradient id="paint0_linear" x1="23.6643" y1="100.967" x2="87.3366" y2="10.0337" gradientUnits="userSpaceOnUse">
<stop stop-color="#FFB900"/>
<stop offset="1" stop-color="#9100EB"/>
</linearGradient>
</defs>
</svg>
