<svg width="70" height="64" viewBox="0 0 70 64" fill="none" xmlns="http://www.w3.org/2000/svg">
<g clip-path="url(#clip0)">
<path d="M70.0429 32C70.0429 27.2403 64.2286 22.7295 55.3143 19.9323C57.3715 10.6179 56.4572 3.20732 52.4286 0.834782C51.5 0.27826 50.4143 0.0146451 49.2286 0.0146451V3.28055C49.8857 3.28055 50.4143 3.41236 50.8572 3.66133C52.8 4.80366 53.6429 9.15332 52.9857 14.7478C52.8286 16.1245 52.5714 17.5744 52.2572 19.0535C49.4572 18.3506 46.4 17.8087 43.1857 17.4572C41.2572 14.7478 39.2572 12.2874 37.2429 10.1346C41.9 5.69703 46.2715 3.2659 49.2429 3.2659V0C45.3143 0 40.1714 2.87048 34.9714 7.84989C29.7714 2.89977 24.6286 0.0585815 20.7 0.0585815V3.32448C23.6572 3.32448 28.0429 5.74096 32.7 10.1492C30.7 12.3021 28.7 14.7478 26.8 17.4572C23.5714 17.8087 20.5143 18.3506 17.7143 19.0682C17.3857 17.6037 17.1429 16.1831 16.9714 14.8211C16.3 9.22654 17.1286 4.87689 19.0572 3.71991C19.4857 3.45629 20.0429 3.33913 20.7 3.33913V0.0732265C19.5 0.0732265 18.4143 0.336842 17.4714 0.893364C13.4572 3.2659 12.5572 10.6618 14.6286 19.9469C5.74287 22.7588 -0.0428467 27.2549 -0.0428467 32C-0.0428467 36.7597 5.77144 41.2705 14.6857 44.0677C12.6286 53.3822 13.5429 60.7927 17.5714 63.1652C18.5 63.7217 19.5857 63.9854 20.7857 63.9854C24.7143 63.9854 29.8572 61.1149 35.0572 56.1355C40.2572 61.0856 45.4 63.9268 49.3286 63.9268C50.5286 63.9268 51.6143 63.6632 52.5572 63.1066C56.5715 60.7341 57.4715 53.3382 55.4 44.0531C64.2572 41.2558 70.0429 36.7451 70.0429 32ZM51.4429 22.2316C50.9143 24.1208 50.2572 26.0686 49.5143 28.0165C48.9286 26.8449 48.3143 25.6732 47.6429 24.5016C46.9857 23.33 46.2857 22.1876 45.5857 21.0746C47.6143 21.3822 49.5714 21.7629 51.4429 22.2316ZM44.9 37.8288C43.7857 39.806 42.6429 41.6806 41.4572 43.4233C39.3286 43.6137 37.1714 43.7163 35 43.7163C32.8429 43.7163 30.6857 43.6137 28.5714 43.438C27.3857 41.6952 26.2286 39.8352 25.1143 37.8728C24.0286 35.9542 23.0429 34.0064 22.1429 32.0439C23.0286 30.0815 24.0286 28.119 25.1 26.2005C26.2143 24.2233 27.3572 22.3487 28.5429 20.606C30.6714 20.4156 32.8286 20.313 35 20.313C37.1572 20.313 39.3143 20.4156 41.4286 20.5913C42.6143 22.3341 43.7715 24.1941 44.8857 26.1565C45.9715 28.0751 46.9572 30.0229 47.8572 31.9854C46.9572 33.9478 45.9714 35.9103 44.9 37.8288ZM49.5143 35.9249C50.2857 37.8874 50.9429 39.8499 51.4857 41.7538C49.6143 42.2224 47.6429 42.6179 45.6 42.9254C46.3 41.7977 47 40.6407 47.6572 39.4545C48.3143 38.2828 48.9286 37.0966 49.5143 35.9249ZM35.0286 51.5515C33.7 50.1455 32.3714 48.5785 31.0572 46.865C32.3429 46.9236 33.6572 46.9675 34.9857 46.9675C36.3286 46.9675 37.6572 46.9382 38.9572 46.865C37.6714 48.5785 36.3429 50.1455 35.0286 51.5515ZM24.4 42.9254C22.3714 42.6179 20.4143 42.2371 18.5429 41.7684C19.0714 39.8792 19.7286 37.9314 20.4714 35.9835C21.0572 37.1552 21.6714 38.3268 22.3429 39.4984C23.0143 40.67 23.7 41.8124 24.4 42.9254ZM34.9572 12.4485C36.2857 13.8545 37.6143 15.4215 38.9286 17.135C37.6429 17.0764 36.3286 17.0325 35 17.0325C33.6572 17.0325 32.3286 17.0618 31.0286 17.135C32.3143 15.4215 33.6429 13.8545 34.9572 12.4485ZM24.3857 21.0746C23.6857 22.2023 22.9857 23.3593 22.3286 24.5455C21.6714 25.7172 21.0572 26.8888 20.4714 28.0604C19.7 26.0979 19.0429 24.1355 18.5 22.2316C20.3714 21.7776 22.3429 21.3822 24.3857 21.0746ZM11.4572 39.4105C6.40001 37.1991 3.12858 34.2993 3.12858 32C3.12858 29.7007 6.40001 26.7863 11.4572 24.5895C12.6857 24.0476 14.0286 23.5643 15.4143 23.1103C16.2286 25.9808 17.3 28.9684 18.6286 32.0293C17.3143 35.0755 16.2572 38.0485 15.4572 40.9043C14.0429 40.4503 12.7 39.9524 11.4572 39.4105ZM19.1429 60.3387C17.2 59.1963 16.3572 54.8467 17.0143 49.2522C17.1714 47.8755 17.4286 46.4256 17.7429 44.9465C20.5429 45.6494 23.6 46.1913 26.8143 46.5428C28.7429 49.2522 30.7429 51.7126 32.7572 53.8654C28.1 58.303 23.7286 60.7341 20.7572 60.7341C20.1143 60.7195 19.5714 60.5876 19.1429 60.3387ZM53.0286 49.1789C53.7 54.7735 52.8714 59.1231 50.9429 60.2801C50.5143 60.5437 49.9572 60.6609 49.3 60.6609C46.3429 60.6609 41.9572 58.2444 37.3 53.8362C39.3 51.6833 41.3 49.2375 43.2 46.5282C46.4286 46.1767 49.4857 45.6348 52.2857 44.9172C52.6143 46.3963 52.8715 47.8169 53.0286 49.1789ZM58.5286 39.4105C57.3 39.9524 55.9572 40.4357 54.5714 40.8897C53.7572 38.0192 52.6857 35.0316 51.3572 31.9707C52.6715 28.9245 53.7286 25.9515 54.5286 23.0957C55.9429 23.5497 57.2857 24.0476 58.5429 24.5895C63.6 26.8009 66.8715 29.7007 66.8715 32C66.8572 34.2993 63.5857 37.2137 58.5286 39.4105Z" fill="#61DAFB"/>
<path d="M34.9857 38.693C38.5914 38.693 41.5143 35.6964 41.5143 32C41.5143 28.3036 38.5914 25.3071 34.9857 25.3071C31.3801 25.3071 28.4572 28.3036 28.4572 32C28.4572 35.6964 31.3801 38.693 34.9857 38.693Z" fill="#61DAFB"/>
</g>
<defs>
<clipPath id="clip0">
<rect width="70" height="64" fill="white"/>
</clipPath>
</defs>
</svg>
