<svg width="112" height="112" viewBox="0 0 112 112" fill="none" xmlns="http://www.w3.org/2000/svg">
<path d="M112 56C112 25.072 86.928 0 56 0C25.072 0 0 25.072 0 56C0 83.9512 20.4785 107.119 47.25 111.32V72.1875H33.0312V56H47.25V43.6625C47.25 29.6275 55.6104 21.875 68.402 21.875C74.529 21.875 80.9375 22.9687 80.9375 22.9687V36.75H73.876C66.9196 36.75 64.75 41.0666 64.75 45.4952V56H80.2812L77.7984 72.1875H64.75V111.32C91.5217 107.119 112 83.9512 112 56Z" fill="#1877F2"/>
<path d="M77.7984 72.1875L80.2812 56H64.75V45.4952C64.75 41.0666 66.9193 36.75 73.876 36.75H80.9375V22.9688C80.9375 22.9688 74.5288 21.875 68.402 21.875C55.6104 21.875 47.25 29.6275 47.25 43.6625V56H33.0312V72.1875H47.25V111.32C50.101 111.767 53.0233 112 56 112C58.9767 112 61.8988 111.767 64.75 111.32V72.1875H77.7984Z" fill="white"/>
</svg>
