<svg width="62" height="70" viewBox="0 0 62 70" fill="none" xmlns="http://www.w3.org/2000/svg">
<g clip-path="url(#clip0)">
<path d="M0 0.0830158C20.6522 0.0812117 41.3025 0.0794076 61.9547 0.0830158C60.818 12.8652 59.6995 25.6474 58.5157 38.4261C57.8123 46.5933 57.0871 54.7606 56.3221 62.9225C51.915 64.0843 47.5515 65.4085 43.1462 66.5758C39.0999 67.7575 35.0209 68.8273 30.9728 70H30.8532C27.0008 68.8598 23.1104 67.8567 19.2581 66.7165C14.7114 65.4969 10.2046 64.1366 5.65614 62.9225C5.06333 56.8047 4.52854 50.6833 4.00099 44.5619C3.00573 33.2518 1.92345 21.949 0.966257 10.6371C0.634503 7.23276 0.397018 3.81755 0 0.420387V0.0830158ZM31.0743 5.12554C31.0308 7.58096 31.107 10.0382 31.0308 12.4918C23.9461 12.4665 16.8596 12.4864 9.77497 12.4936C9.89643 14.8768 10.2173 17.2438 10.5473 19.6072C17.1388 19.8508 23.7395 19.5982 30.3311 19.7949C24.5643 22.3694 18.7269 24.7941 12.9348 27.3145C12.4381 27.5346 11.9069 27.7005 11.4627 28.0217C11.5117 30.6395 11.9359 33.2428 12.1226 35.8552C15.636 35.8426 19.1475 35.7866 22.6608 35.7812C25.4762 35.7668 28.2934 35.8227 31.1088 35.7614C30.9746 40.066 31.1505 44.3761 31.0181 48.6807C29.1237 48.4011 27.2528 47.9807 25.3656 47.6469C23.8773 47.324 22.3526 47.1562 20.886 46.7322C20.6775 44.6665 20.5325 42.5936 20.3476 40.5261C19.9234 40.3962 19.4738 40.4088 19.0351 40.4016C16.9068 40.4142 14.7767 40.3944 12.6465 40.4268C12.855 44.4013 13.214 48.3704 13.8249 52.307C15.9242 52.8518 18.0271 53.3859 20.1228 53.9542C23.3334 54.8237 26.5839 55.5472 29.7999 56.4023C30.1824 56.4835 30.5685 56.6243 30.9656 56.5918C31.1795 59.206 31.0145 61.8364 31.0544 64.4578C31.7958 64.3387 32.5246 64.1565 33.2407 63.9364C39.3283 62.291 45.4087 60.615 51.4926 58.9534C51.7954 56.5719 51.9368 54.1743 52.1761 51.7874C52.8088 44.5312 53.4469 37.275 54.1104 30.0206C54.8881 21.7217 55.5607 13.4137 56.3439 5.11472C47.9195 5.12193 39.4969 5.09848 31.0743 5.12554Z" fill="#0170BA"/>
<path d="M31.0743 5.12549C39.4969 5.09843 47.9195 5.12188 56.3439 5.11466C55.5607 13.4136 54.8881 21.7216 54.1104 30.0206C53.4469 37.275 52.8088 44.5312 52.1761 51.7873C51.9368 54.1742 51.7954 56.5719 51.4926 58.9533C45.4086 60.6149 39.3283 62.291 33.2407 63.9363C32.5246 64.1564 31.7958 64.3386 31.0544 64.4577C31.0145 61.8363 31.1795 59.2059 30.9655 56.5917C31.0199 56.5809 31.1305 56.5593 31.1849 56.5484C36.8465 55.134 42.47 53.577 48.1189 52.1121C48.8331 44.1379 49.6254 36.1672 50.1275 28.1768C45.3234 28.202 40.5175 28.1876 35.7134 28.2074C35.0137 28.2111 34.3139 28.2074 33.6178 28.1569C36.2029 26.8327 38.9222 25.7827 41.5762 24.601C44.1233 23.4518 46.7012 22.3747 49.2574 21.2471C49.7505 21.0216 50.2762 20.834 50.7095 20.4984C50.8799 19.876 50.8708 19.2247 50.9379 18.5879C51.0847 16.5672 51.3458 14.5574 51.4437 12.535C44.64 12.4809 37.8363 12.5278 31.0308 12.4917C31.1069 10.0381 31.0308 7.5809 31.0743 5.12549Z" fill="#29A9DF"/>
<path d="M31.1088 35.7613C34.3937 35.7054 37.6804 35.7938 40.9671 35.7721C40.784 39.1152 40.5048 42.4528 40.3308 45.7958C38.3167 46.4507 36.2718 47.0046 34.2414 47.6108C33.1591 47.9391 32.0478 48.1989 31.0181 48.6806C31.1505 44.376 30.9746 40.0659 31.1088 35.7613Z" fill="#29A9DF"/>
<path d="M9.77496 12.4936C16.8596 12.4863 23.9461 12.4665 31.0308 12.4917C31.1233 20.2495 31.0072 28.0072 31.1088 35.7613C28.2934 35.8227 25.4762 35.7667 22.6608 35.7812C19.1475 35.7866 15.636 35.8425 12.1226 35.8551C11.9359 33.2428 11.5117 30.6394 11.4627 28.0216C11.9069 27.7005 12.4381 27.5345 12.9348 27.3144C18.7269 24.7941 24.5643 22.3693 30.331 19.7948C23.7395 19.5982 17.1388 19.8508 10.5472 19.6072C10.2173 17.2438 9.89643 14.8768 9.77496 12.4936Z" fill="#CFCFCF"/>
<path d="M12.6465 40.4268C14.7767 40.3943 16.9068 40.4142 19.0351 40.4016C19.4738 40.4088 19.9234 40.3961 20.3476 40.526C20.5325 42.5936 20.6775 44.6665 20.886 46.7322C22.3526 47.1562 23.8772 47.324 25.3656 47.6469C27.2528 47.9807 29.1237 48.401 31.0181 48.6807C31.1994 51.3003 30.8822 53.9379 31.1849 56.5485C31.1305 56.5593 31.0199 56.5809 30.9656 56.5918C30.5685 56.6242 30.1824 56.4835 29.7999 56.4023C26.5839 55.5472 23.3334 54.8237 20.1228 53.9541C18.0271 53.3858 15.9242 52.8518 13.8249 52.307C13.214 48.3704 12.855 44.4013 12.6465 40.4268Z" fill="#CFCFCF"/>
<path d="M31.0308 12.4918C37.8363 12.5278 44.64 12.4809 51.4437 12.5351C51.3458 14.5575 51.0847 16.5673 50.9379 18.5879C50.8708 19.2247 50.8799 19.876 50.7095 20.4985C50.2762 20.834 49.7505 21.0217 49.2574 21.2472C46.7012 22.3747 44.1233 23.4518 41.5763 24.601C38.9222 25.7827 36.2029 26.8327 33.6178 28.157C34.3139 28.2075 35.0137 28.2111 35.7134 28.2075C40.5175 28.1876 45.3235 28.2021 50.1275 28.1768C49.6254 36.1673 48.8332 44.1379 48.1189 52.1121C42.47 53.5771 36.8465 55.134 31.1849 56.5484C30.8822 53.9379 31.1994 51.3002 31.0181 48.6807C32.0478 48.199 33.1591 47.9392 34.2414 47.6108C36.2718 47.0046 38.3167 46.4508 40.3308 45.7959C40.5049 42.4528 40.784 39.1152 40.9671 35.7722C37.6804 35.7938 34.3937 35.7054 31.1088 35.7613C31.0073 28.0072 31.1233 20.2495 31.0308 12.4918Z" fill="white"/>
</g>
<defs>
<clipPath id="clip0">
<rect width="62" height="70" fill="white"/>
</clipPath>
</defs>
</svg>
