<svg width="111" height="111" viewBox="0 0 111 111" fill="none" xmlns="http://www.w3.org/2000/svg">
<path d="M55.5 111C86.1518 111 111 86.1518 111 55.5C111 24.8482 86.1518 0 55.5 0C24.8482 0 0 24.8482 0 55.5C0 86.1518 24.8482 111 55.5 111Z" fill="#0076B4"/>
<path d="M38.2594 83.1928H25.308V41.5643H38.2594V83.1928ZM31.7876 35.8764C27.6321 35.8764 24.2812 32.5152 24.2812 28.3727C24.2812 24.2318 27.6321 20.8698 31.7876 20.8698C35.925 20.8698 39.2853 24.231 39.2853 28.3727C39.2862 32.5152 35.9258 35.8764 31.7876 35.8764ZM86.7188 83.1928H73.7812V62.9492C73.7812 58.1224 73.6971 51.9116 67.0587 51.9116C60.325 51.9116 59.2991 57.1711 59.2991 62.604V83.1928H46.3763V41.5643H58.778V47.2548H58.9549C60.6806 43.982 64.9012 40.5315 71.197 40.5315C84.2958 40.5315 86.717 49.1505 86.717 60.3623L86.7188 83.1928Z" fill="white"/>
</svg>
