<svg width="111" height="111" viewBox="0 0 111 111" fill="none" xmlns="http://www.w3.org/2000/svg">
<path d="M55.5 0C24.8467 0 0 24.8467 0 55.5C0 86.1533 24.8501 111 55.5 111C86.1533 111 111 86.1533 111 55.5C111 24.8467 86.1533 0 55.5 0ZM62.6699 65.7675C63.825 66.77 64.7234 70.3046 64.7234 71.928V86.3025H56.5198H48.3058C48.3058 86.3025 48.3301 81.4289 48.3058 78.0885C37.0671 80.5062 33.9313 71.928 33.9313 71.928C31.8778 67.821 29.8243 65.7675 29.8243 65.7675C25.7173 63.329 29.8243 63.714 29.8243 63.714C33.9313 63.714 35.9848 67.821 35.9848 67.821C39.5888 73.9399 46.0026 72.9548 48.3058 71.928C48.3058 69.8745 49.2042 66.77 50.3593 65.7675C41.3891 64.7581 33.9244 59.607 33.9244 49.3395C33.9244 39.072 35.9848 37.0185 38.0383 34.965C37.6221 33.9521 35.905 30.2128 38.1007 24.6975C38.1007 24.6975 42.1349 24.6975 46.2419 30.858C48.2781 28.8218 54.4559 28.8045 56.5129 28.8045C58.5629 28.8045 64.7442 28.8218 66.7769 30.858C70.8839 24.6975 74.9285 24.6975 74.9285 24.6975C77.1242 30.2128 75.4072 33.9521 74.9909 34.965C77.0444 37.0185 79.0979 39.072 79.0979 49.3395C79.1014 59.607 71.6436 64.7581 62.6699 65.7675Z" fill="white"/>
</svg>
